<svg width="420" height="531" viewBox="0 0 420 531" fill="none" xmlns="http://www.w3.org/2000/svg">
<g clip-path="url(#clip0_198_106)">
<path d="M104.995 207.557L0 315.364V207.557V99.7493L104.995 207.557Z" fill="#FB1F43"/>
<path d="M210.01 99.7494L262.498 45.8353L315.005 -8.05811L420 99.7494H210.01Z" fill="#FF8688"/>
<path d="M104.995 207.557L52.5076 153.663L0 99.7494L52.5076 45.8353L104.995 -8.05811L210.01 99.7494L104.995 207.557Z" fill="#FC4468"/>
<path d="M210.01 99.7493H315.005H420V207.557V315.364L210.01 99.7493Z" fill="#B3163C"/>
<path d="M0 315.364L210.01 99.7493V315.364V531L0 315.364Z" fill="#B3163C"/>
<path d="M210.01 531V423.192V315.364V207.557V99.7493L315.005 207.557L420 315.364L315.005 423.192L210.01 531Z" fill="#FB1F43"/>
</g>
<defs>
<clipPath id="clip0_198_106">
<rect width="420" height="531" fill="white"/>
</clipPath>
</defs>
</svg>
