<svg width="44" height="30" viewBox="0 0 44 30" fill="none" xmlns="http://www.w3.org/2000/svg">
<path d="M6.92135 13.8968C7.0623 13.1168 7.1419 12.3601 7.33922 11.6332C8.98084 5.54762 12.8726 1.69579 19.0113 0.341596C27.4134 -1.51213 35.6995 4.38925 36.9182 12.9426C36.9614 13.2413 36.9166 13.6247 37.0857 13.8105C37.2283 13.9682 37.623 13.8935 37.9065 13.9267C41.0704 14.2885 43.1962 16.6733 43.1995 19.8662C43.2012 20.9715 43.2045 22.0751 43.1995 23.1804C43.1829 26.4248 40.6708 28.9556 37.4323 28.9905C36.9083 28.9955 36.3843 28.9938 35.8587 28.9905C34.935 28.9838 34.4293 28.4777 34.4276 27.5516C34.426 23.4359 34.4326 19.3219 34.4243 15.2062C34.4177 11.5801 33.1375 8.45848 30.4562 6.02391C26.7933 2.69816 22.4935 1.78209 17.8456 3.42505C13.3121 5.02818 10.6241 8.37384 9.74859 13.1235C9.61428 13.8504 9.58774 14.6055 9.58443 15.3489C9.5695 19.3667 9.5778 23.3862 9.5778 27.4039C9.5778 28.4461 9.26605 28.8892 8.24957 28.9938C5.82362 29.2444 3.62153 28.7864 2.01473 26.7451C1.21216 25.7245 0.817511 24.5495 0.807562 23.2517C0.799271 22.0784 0.800929 20.9035 0.805903 19.7302C0.817511 16.5073 3.30647 13.9682 6.52173 13.8968C6.6577 13.8935 6.79367 13.8968 6.92135 13.8968Z" fill="#FB1F43"/>
</svg>
