<svg width="14" height="14" viewBox="0 0 14 14" fill="none" xmlns="http://www.w3.org/2000/svg">
<path d="M9.79301 0.333252H4.20634C1.77967 0.333252 0.333008 1.77992 0.333008 4.20659V9.78659C0.333008 12.2199 1.77967 13.6666 4.20634 13.6666H9.78634C12.213 13.6666 13.6597 12.2199 13.6597 9.79325V4.20659C13.6663 1.77992 12.2197 0.333252 9.79301 0.333252ZM10.1863 5.46659L6.40634 9.24659C6.31301 9.33992 6.18634 9.39325 6.05301 9.39325C5.91967 9.39325 5.79301 9.33992 5.69967 9.24659L3.81301 7.35992C3.61967 7.16659 3.61967 6.84659 3.81301 6.65325C4.00634 6.45992 4.32634 6.45992 4.51967 6.65325L6.05301 8.18659L9.47968 4.75992C9.67301 4.56659 9.99301 4.56659 10.1863 4.75992C10.3797 4.95325 10.3797 5.26659 10.1863 5.46659Z" fill="#FB1F43"/>
</svg>
