<svg width="205" height="178" viewBox="0 0 205 178" fill="none" xmlns="http://www.w3.org/2000/svg">
<path d="M204.999 14.1147V94.053C204.999 101.845 198.68 108.168 190.893 108.168H42.9305C35.143 108.168 28.8242 101.845 28.8242 94.053V14.1147C28.8242 6.31314 35.143 0 42.9305 0H190.89C198.68 0 204.999 6.31314 204.999 14.1147Z" fill="#E8375C"/>
<path d="M174.668 84.2284H135.152C133.687 84.2284 132.496 83.0402 132.496 81.5705V62.6812C132.496 61.2147 133.684 60.0233 135.152 60.0233H174.668C176.134 60.0233 177.324 61.2115 177.324 62.6812V81.5705C177.324 83.0371 176.134 84.2284 174.668 84.2284Z" fill="url(#paint0_linear_728_954)"/>
<path opacity="0.8" d="M204.999 26.0374H28.8242V45.6491H204.999V26.0374Z" fill="white"/>
<path d="M176.181 83.947V163.895C176.181 165.464 175.925 166.981 175.438 168.391C173.578 173.976 168.297 178.003 162.075 178.003H14.1062C6.31875 178 0 171.687 0 163.892V83.947C0 77.7307 4.02187 72.4463 9.60625 70.5765C11.025 70.0887 12.5312 69.8323 14.1062 69.8323H162.075C169.866 69.8291 176.181 76.1517 176.181 83.947Z" fill="url(#paint1_linear_728_954)"/>
<path d="M45.0156 125.49H16.9281C15.5344 125.49 14.4062 124.362 14.4062 122.967V98.465C14.4062 97.0704 15.5344 95.9416 16.9281 95.9416H45.0156C46.4094 95.9416 47.5375 97.0704 47.5375 98.465V122.967C47.5406 124.362 46.4094 125.49 45.0156 125.49Z" fill="url(#paint2_linear_728_954)"/>
<path opacity="0.8" d="M41.6781 151.009H18.7469C16.35 151.009 14.4062 149.023 14.4062 146.575C14.4062 144.127 16.35 142.141 18.7469 142.141H41.6781C44.075 142.141 46.0187 144.127 46.0187 146.575C46.0187 149.023 44.075 151.009 41.6781 151.009Z" fill="white"/>
<path opacity="0.8" d="M157.438 107.467H115.429C113.032 107.467 111.088 105.482 111.088 103.033C111.088 100.585 113.032 98.5994 115.429 98.5994H157.438C159.835 98.5994 161.779 100.585 161.779 103.033C161.775 105.482 159.835 107.467 157.438 107.467Z" fill="white"/>
<path opacity="0.8" d="M157.438 122.83H81.4852C79.0883 122.83 77.1445 120.844 77.1445 118.396C77.1445 115.947 79.0883 113.962 81.4852 113.962H157.438C159.835 113.962 161.779 115.947 161.779 118.396C161.779 120.844 159.835 122.83 157.438 122.83Z" fill="white"/>
<path opacity="0.8" d="M80.266 151.009H57.3348C54.9379 151.009 52.9941 149.023 52.9941 146.575C52.9941 144.127 54.9379 142.141 57.3348 142.141H80.266C82.6629 142.141 84.6066 144.127 84.6066 146.575C84.6066 149.023 82.6629 151.009 80.266 151.009Z" fill="white"/>
<path opacity="0.8" d="M118.85 151.009H95.9188C93.5219 151.009 91.5781 149.023 91.5781 146.575C91.5781 144.127 93.5219 142.141 95.9188 142.141H118.85C121.247 142.141 123.191 144.127 123.191 146.575C123.191 149.023 121.247 151.009 118.85 151.009Z" fill="white"/>
<path opacity="0.8" d="M157.438 151.009H134.507C132.11 151.009 130.166 149.023 130.166 146.575C130.166 144.127 132.11 142.141 134.507 142.141H157.438C159.835 142.141 161.779 144.127 161.779 146.575C161.779 149.023 159.835 151.009 157.438 151.009Z" fill="white"/>
<path opacity="0.5" d="M41.8313 104.2H47.5406V103.312H41.8313C40.825 103.312 40.0031 104.134 40.0031 105.147V110.269H36.4813V107.064C36.4813 106.041 35.65 105.213 34.6313 105.213H31.4188V95.9385H30.5312V105.213H27.4C26.3813 105.213 25.55 106.045 25.55 107.064V110.269H21.9438V105.147C21.9438 104.134 21.125 103.312 20.1156 103.312H14.4062V104.2H20.1156C20.6344 104.2 21.0562 104.625 21.0562 105.15V116.285C21.0562 116.81 20.6344 117.236 20.1156 117.236H14.4062V118.124H20.1156C21.1219 118.124 21.9438 117.301 21.9438 116.288V111.16H25.55V114.365C25.55 115.388 26.3813 116.219 27.4 116.219H30.5312V125.494H31.4188V116.219H34.6313C35.65 116.219 36.4813 115.388 36.4813 114.365V111.16H40.0031V116.285C40.0031 117.298 40.8219 118.12 41.8313 118.12H47.5406V117.232H41.8313C41.3125 117.232 40.8906 116.807 40.8906 116.282V105.147C40.8906 104.625 41.3125 104.2 41.8313 104.2ZM35.5938 114.365C35.5938 114.897 35.1625 115.331 34.6281 115.331H27.4C26.8688 115.331 26.4344 114.897 26.4344 114.365V107.07C26.4344 106.539 26.8656 106.104 27.4 106.104H34.6313C35.1625 106.104 35.5969 106.539 35.5969 107.07V114.365H35.5938Z" fill="#E01600"/>
<path opacity="0.3" d="M185.93 74.1943V108.171H176.184V83.947C176.184 83.1934 176.121 82.4492 176.015 81.73C174.943 74.9822 169.112 69.8323 162.077 69.8323H28.8242V60.0796H171.821C173.293 60.0796 174.709 60.3016 176.04 60.7269H176.049C181.765 62.5154 185.93 67.8717 185.93 74.1943Z" fill="white"/>
<defs>
<linearGradient id="paint0_linear_728_954" x1="133.704" y1="59.8754" x2="176.129" y2="84.3546" gradientUnits="userSpaceOnUse">
<stop stop-color="#FFE900"/>
<stop offset="0.4973" stop-color="#FFB500"/>
<stop offset="1" stop-color="#FF8B00"/>
</linearGradient>
<linearGradient id="paint1_linear_728_954" x1="21.1531" y1="56.9389" x2="155.111" y2="190.816" gradientUnits="userSpaceOnUse">
<stop stop-color="#FB1F43"/>
<stop offset="0.4973" stop-color="#FC4468"/>
<stop offset="1" stop-color="#B4163C"/>
</linearGradient>
<linearGradient id="paint2_linear_728_954" x1="16.0462" y1="95.7802" x2="45.9179" y2="125.634" gradientUnits="userSpaceOnUse">
<stop stop-color="#FFE900"/>
<stop offset="0.4973" stop-color="#FFB500"/>
<stop offset="1" stop-color="#FF8B00"/>
</linearGradient>
</defs>
</svg>
