<svg width="125" height="29" viewBox="0 0 125 29" fill="none" xmlns="http://www.w3.org/2000/svg">
<path d="M58.3589 1.64722H48.2714C47.525 1.64722 46.9278 1.86684 46.4847 2.3037C46.0392 2.74057 45.8188 3.34692 45.8188 4.12038V10.7425V12.5425V18.1883C45.8188 18.9809 46.006 19.5419 46.3781 19.8665C46.7525 20.1912 47.3923 20.3535 48.3022 20.3535C48.7264 20.3535 49.1411 20.3273 49.5439 20.2771C49.9467 20.227 50.2406 20.1697 50.423 20.11V13.2444H56.1788C56.6836 13.2444 57.0817 13.0868 57.3755 12.7717C57.667 12.4566 57.8139 11.9744 57.8139 11.3226C57.8139 10.9574 57.7641 10.616 57.6622 10.3009C57.5603 9.98579 57.4513 9.72559 57.3281 9.52267H50.3922V5.37129H57.2073C57.712 5.37129 58.1101 5.21373 58.4039 4.89862C58.6954 4.5835 58.8423 4.10128 58.8423 3.44957C58.8423 3.08433 58.7925 2.73818 58.6906 2.41113C58.5911 2.08647 58.4797 1.83103 58.3589 1.64722Z" fill="white"/>
<path d="M65.4939 0.458347C65.0982 0.152782 64.4679 0 63.6006 0C63.1764 0 62.7831 0.0310339 62.4182 0.0907146C62.0532 0.150395 61.7712 0.212463 61.5698 0.274531V12.0841V14.4332V18.248C61.5698 19.0405 61.7712 19.5896 62.1765 19.8951C62.5793 20.2007 63.2072 20.3535 64.0556 20.3535C64.4797 20.3535 64.8731 20.3272 65.238 20.2771C65.6006 20.227 65.8849 20.1697 66.0863 20.11V14.5263V12.1772V2.13657C66.084 1.32252 65.8873 0.763912 65.4939 0.458347Z" fill="white"/>
<path d="M80.5621 6.36196C79.3086 5.4763 77.6333 5.03467 75.5338 5.03467C74.8063 5.03467 74.0551 5.09196 73.2779 5.20177C72.5007 5.31397 71.8182 5.49063 71.2329 5.73651C70.304 6.12324 69.8396 6.74392 69.8396 7.59855C69.8396 7.96379 69.9249 8.31472 70.0979 8.65131C70.2685 8.98791 70.477 9.23618 70.7187 9.39852C71.304 9.15502 71.9651 8.94017 72.7021 8.75874C73.439 8.57492 74.1926 8.48421 74.958 8.48421C75.9485 8.48421 76.7091 8.63699 77.2447 8.94256C77.7802 9.24812 78.048 9.74705 78.048 10.437V10.8022L74.0196 11.2295C72.3443 11.3918 71.0813 11.8454 70.2329 12.5878C69.3846 13.3303 68.9604 14.3926 68.9604 15.7772C68.9604 17.3838 69.5718 18.5941 70.7922 19.4082C72.0149 20.2222 73.6547 20.628 75.7139 20.628C76.8655 20.628 77.8892 20.5206 78.7873 20.3081C79.6854 20.0933 80.4389 19.8044 81.0432 19.4392C81.446 19.2148 81.7801 18.945 82.0431 18.6299C82.3062 18.3148 82.4365 17.9018 82.4365 17.3933V10.468C82.4412 8.6155 81.8157 7.24763 80.5621 6.36196ZM78.0788 16.7846C77.8773 16.9063 77.548 17.0138 77.0954 17.1045C76.6404 17.1952 76.1807 17.2429 75.7162 17.2429C74.8679 17.2429 74.2518 17.0949 73.8679 16.8013C73.4841 16.5077 73.2921 16.1138 73.2921 15.6268C73.2921 15.1398 73.4935 14.7722 73.8987 14.5287C74.3016 14.2852 74.8466 14.1419 75.5338 14.1013L78.0788 13.8579V16.7846Z" fill="white"/>
<path d="M104.797 5.58373C103.889 5.21848 102.908 5.03467 101.858 5.03467C100.626 5.03467 99.5859 5.22326 98.7375 5.60044C98.1499 5.86065 97.6096 6.15905 97.112 6.49326C96.5883 6.06356 96.0006 5.72935 95.3466 5.49302C94.4983 5.18745 93.5907 5.03467 92.6215 5.03467C91.5718 5.03467 90.5623 5.1779 89.5932 5.46198C88.624 5.74845 87.8065 6.12324 87.1406 6.59114C86.7354 6.85612 86.4297 7.15452 86.2165 7.49112C86.0032 7.82772 85.8989 8.25026 85.8989 8.75874V12.1152V13.5189V18.248C85.8989 19.0405 86.0956 19.5896 86.489 19.8951C86.8823 20.2007 87.5032 20.3535 88.3515 20.3535C88.7756 20.3535 89.169 20.3272 89.5339 20.2771C89.8965 20.227 90.1808 20.1697 90.3823 20.11V13.5189V12.1152V9.21709C90.624 9.07624 90.9225 8.93778 91.2756 8.8041C91.6287 8.6728 92.0268 8.60596 92.4723 8.60596C93.0789 8.60596 93.5836 8.76829 93.9865 9.09534C94.3893 9.42 94.5931 9.93087 94.5931 10.6208V12.1152V13.5189V18.248C94.5931 19.0405 94.7898 19.5896 95.1831 19.8951C95.5765 20.2007 96.2068 20.3535 97.0764 20.3535C97.5006 20.3535 97.894 20.3272 98.2589 20.2771C98.6214 20.227 98.9058 20.1697 99.1072 20.11V13.5189V12.1152V10.0407C99.1072 9.8306 99.0882 9.62053 99.0503 9.41045C99.3039 9.21947 99.5906 9.04759 99.9105 8.8972C100.325 8.70383 100.764 8.60834 101.228 8.60834C101.854 8.60834 102.358 8.77068 102.742 9.09772C103.126 9.42239 103.318 9.93325 103.318 10.6232V12.1176V13.5213V18.2503C103.318 19.0429 103.515 19.592 103.908 19.8975C104.301 20.2031 104.932 20.3559 105.801 20.3559C106.226 20.3559 106.619 20.3296 106.984 20.2795C107.346 20.2294 107.619 20.1721 107.801 20.1124V13.5189V12.1152V10.4966C107.801 9.17412 107.529 8.11658 106.984 7.32402C106.432 6.53146 105.704 5.95136 104.797 5.58373Z" fill="white"/>
<path d="M124.485 12.9077C124.829 12.5831 125 12.1032 125 11.473C125 10.2126 124.706 9.1025 124.121 8.14761C123.535 7.19272 122.722 6.43358 121.682 5.87497C120.642 5.31636 119.426 5.03467 118.033 5.03467C117.083 5.03467 116.17 5.18745 115.291 5.49302C114.412 5.79858 113.625 6.2617 112.929 6.88238C112.232 7.50306 111.675 8.29084 111.263 9.24812C110.848 10.2054 110.642 11.3346 110.642 12.6356C110.642 14.4045 110.995 15.8798 111.701 17.0615C112.407 18.2408 113.381 19.1265 114.625 19.7161C115.869 20.3057 117.265 20.6018 118.822 20.6018C119.893 20.6018 120.846 20.4991 121.685 20.2962C122.523 20.0933 123.18 19.7877 123.654 19.3819C124.128 18.9761 124.365 18.4676 124.365 17.8565C124.365 17.4912 124.267 17.1451 124.078 16.818C123.886 16.4933 123.639 16.2379 123.336 16.0541C122.872 16.3191 122.265 16.5721 121.519 16.818C120.772 17.0615 119.974 17.1833 119.125 17.1833C118.076 17.1833 117.166 16.9445 116.4 16.4671C115.787 16.0851 115.365 15.4955 115.125 14.7053L123.064 13.5236C123.668 13.4377 124.142 13.2348 124.485 12.9077ZM114.843 11.6497C114.929 10.6637 115.244 9.88551 115.791 9.32451C116.398 8.70383 117.154 8.39349 118.064 8.39349C118.931 8.39349 119.587 8.63699 120.033 9.12637C120.476 9.61337 120.72 10.1433 120.76 10.7139L114.843 11.6497Z" fill="white"/>
<path d="M5.55203 29L0 19.9667L11.0377 19.9309L5.55203 29Z" fill="#B4163C"/>
<path d="M38.4045 10.9L32.9188 1.83093H0L5.48568 10.9L0 19.9691H33.0112L38.4045 10.9Z" fill="white"/>
<path d="M18.7958 7.67007C17.8646 6.73189 16.3527 6.73189 15.4191 7.67007L15.1158 7.97563L14.8125 7.67007C13.8812 6.73189 12.3694 6.73189 11.4358 7.67007C10.5045 8.60824 10.5021 10.1265 11.431 11.0671L15.1182 14.8007L18.8006 11.0695C19.7295 10.1265 19.7271 8.60824 18.7958 7.67007Z" fill="#FB1F43"/>
<path d="M29.5326 7.67007C28.6014 6.73189 27.0896 6.73189 26.1559 7.67007L25.8526 7.97563L25.5493 7.67007C24.618 6.73189 23.1062 6.73189 22.1726 7.67007C21.2413 8.60824 21.239 10.1265 22.1678 11.0671L25.855 14.8007L29.5374 11.0695C30.4663 10.1265 30.4639 8.60824 29.5326 7.67007Z" fill="#FB1F43"/>
</svg>
