<svg width="17" height="20" viewBox="0 0 17 20" fill="none" xmlns="http://www.w3.org/2000/svg">
<path d="M0.00131885 9.99149C0.00131885 7.70035 -0.00249263 5.40921 0.00284345 3.11807C0.00589264 1.68699 0.944281 0.454324 2.29583 0.102802C2.53977 0.0395285 2.79743 0.00515749 3.04822 0.00515749C5.90684 -0.00187294 8.76546 -0.000310624 11.6241 0.000470534C12.1836 0.000470534 12.5853 0.394174 12.5869 0.934736C12.5884 1.48311 12.1844 1.87447 11.6111 1.87525C8.80357 1.87603 5.99603 1.87525 3.18849 1.87603C2.32328 1.87603 1.83236 2.37988 1.83236 3.26962C1.83236 7.75425 1.83236 12.2397 1.83236 16.7243C1.83236 17.6234 2.32252 18.1233 3.20297 18.1233C6.01051 18.1233 8.81805 18.1226 11.6256 18.1241C12.2004 18.1241 12.6029 18.5358 12.5869 19.0982C12.5731 19.5732 12.208 19.963 11.7438 19.9966C11.6995 19.9997 11.6546 19.9989 11.6103 19.9989C8.76469 19.9989 5.91904 20.002 3.07338 19.9981C1.58309 19.9958 0.360361 18.9662 0.0638273 17.4664C0.0203763 17.2453 0.00513034 17.0141 0.00513034 16.7876C-0.000205741 14.5222 0.00131885 12.2568 0.00131885 9.99149Z" fill="white"/>
<path d="M13.858 10.9375C13.7505 10.9375 13.6835 10.9375 13.6164 10.9375C11.3173 10.9375 9.0182 10.9383 6.71988 10.9367C6.21828 10.9367 5.84018 10.6157 5.76472 10.136C5.67782 9.58609 6.10318 9.07052 6.6627 9.06427C7.28474 9.05646 7.90754 9.06193 8.52957 9.06193C10.2249 9.06193 11.921 9.06193 13.6164 9.06193C13.6842 9.06193 13.7513 9.06193 13.858 9.06193C13.7856 8.98069 13.7422 8.92913 13.6949 8.88148C12.8373 8.0019 11.979 7.12388 11.1221 6.24429C10.8081 5.92167 10.7288 5.53344 10.8919 5.15692C11.1397 4.58745 11.8532 4.42029 12.3159 4.82414C12.3738 4.87492 12.4264 4.93116 12.4806 4.98663C13.8641 6.40365 15.2469 7.82145 16.6297 9.23847C17.1222 9.7431 17.1214 10.2587 16.6275 10.7649C15.2309 12.1959 13.8329 13.6262 12.4386 15.0597C12.1871 15.3182 11.8982 15.4502 11.5452 15.3729C10.8477 15.2198 10.5824 14.3754 11.0551 13.827C11.097 13.7786 11.1435 13.7333 11.1877 13.6872C12.0232 12.831 12.8579 11.9757 13.6934 11.1187C13.7414 11.0703 13.7849 11.0187 13.858 10.9375Z" fill="white"/>
</svg>
