<svg width="194" height="45" viewBox="0 0 194 45" fill="none" xmlns="http://www.w3.org/2000/svg">
<path d="M90.5735 2.55591H74.9177C73.7592 2.55591 72.8325 2.8967 72.1447 3.57459C71.4533 4.25248 71.1113 5.19338 71.1113 6.39358V16.6693V19.4624V28.2231C71.1113 29.4529 71.4019 30.3235 71.9793 30.8272C72.5603 31.331 73.5533 31.5829 74.9655 31.5829C75.6238 31.5829 76.2674 31.5422 76.8926 31.4644C77.5178 31.3866 77.9738 31.2977 78.257 31.2051V20.5515H87.19C87.9734 20.5515 88.5912 20.307 89.0473 19.818C89.4996 19.329 89.7276 18.5808 89.7276 17.5695C89.7276 17.0027 89.6504 16.473 89.4922 15.984C89.3341 15.4951 89.1649 15.0913 88.9737 14.7764H78.2092V8.33464H88.7861C89.5695 8.33464 90.1873 8.09016 90.6434 7.60119C91.0957 7.11222 91.3237 6.36394 91.3237 5.35267C91.3237 4.78591 91.2465 4.24878 91.0884 3.74129C90.9339 3.2375 90.761 2.84114 90.5735 2.55591Z" fill="#1F1E28"/>
<path d="M101.647 0.711228C101.033 0.237076 100.054 0 98.7084 0C98.0501 0 97.4396 0.0481561 96.8732 0.140764C96.3069 0.233372 95.8692 0.329684 95.5566 0.425996V18.7512V22.3963V28.3158C95.5566 29.5456 95.8693 30.3976 96.4981 30.8718C97.1233 31.3459 98.0979 31.583 99.4145 31.583C100.073 31.583 100.683 31.5422 101.25 31.4645C101.812 31.3867 102.254 31.2978 102.566 31.2052V22.5408V18.8957V3.31536C102.563 2.05219 102.257 1.18538 101.647 0.711228Z" fill="#1F1E28"/>
<path d="M125.033 9.8721C123.088 8.4978 120.488 7.8125 117.229 7.8125C116.1 7.8125 114.934 7.9014 113.728 8.0718C112.522 8.24591 111.463 8.52002 110.554 8.90157C109.113 9.50167 108.392 10.4648 108.392 11.7909C108.392 12.3577 108.524 12.9022 108.793 13.4245C109.057 13.9468 109.381 14.3321 109.756 14.584C110.665 14.2061 111.691 13.8728 112.834 13.5912C113.978 13.306 115.148 13.1652 116.335 13.1652C117.873 13.1652 119.053 13.4023 119.884 13.8765C120.716 14.3506 121.131 15.1248 121.131 16.1954V16.7621L114.879 17.4252C112.279 17.6771 110.319 18.3809 109.002 19.533C107.686 20.685 107.027 22.3334 107.027 24.4819C107.027 26.9749 107.976 28.853 109.87 30.1162C111.768 31.3794 114.313 32.0091 117.509 32.0091C119.296 32.0091 120.885 31.8424 122.279 31.5127C123.672 31.1793 124.842 30.7311 125.78 30.1643C126.405 29.8161 126.923 29.3975 127.332 28.9086C127.74 28.4196 127.942 27.7788 127.942 26.9897V16.2435C127.95 13.369 126.979 11.2464 125.033 9.8721ZM121.179 26.0451C120.866 26.2341 120.355 26.4008 119.653 26.5415C118.947 26.6823 118.233 26.7564 117.512 26.7564C116.196 26.7564 115.24 26.5267 114.644 26.0711C114.048 25.6154 113.75 25.0042 113.75 24.2485C113.75 23.4929 114.063 22.9224 114.692 22.5446C115.317 22.1667 116.163 21.9445 117.229 21.8815L121.179 21.5036V26.0451Z" fill="#1F1E28"/>
<path d="M162.645 8.66449C161.236 8.09773 159.714 7.8125 158.084 7.8125C156.172 7.8125 154.558 8.10514 153.241 8.69042C152.329 9.09419 151.49 9.55723 150.718 10.0758C149.905 9.40906 148.993 8.89046 147.978 8.52373C146.662 8.04958 145.253 7.8125 143.749 7.8125C142.12 7.8125 140.553 8.03476 139.049 8.47557C137.545 8.92009 136.276 9.50167 135.243 10.2277C134.614 10.6389 134.139 11.1019 133.808 11.6242C133.477 12.1465 133.315 12.8022 133.315 13.5912V18.7995V20.9776V28.3159C133.315 29.5457 133.621 30.3977 134.231 30.8719C134.842 31.346 135.805 31.5831 137.122 31.5831C137.78 31.5831 138.391 31.5423 138.957 31.4646C139.52 31.3868 139.961 31.2979 140.274 31.2052V20.9776V18.7995V14.3025C140.649 14.0839 141.112 13.8691 141.66 13.6616C142.208 13.4579 142.826 13.3542 143.517 13.3542C144.459 13.3542 145.242 13.606 145.867 14.1135C146.492 14.6173 146.809 15.4101 146.809 16.4806V18.7995V20.9776V28.3159C146.809 29.5457 147.114 30.3977 147.724 30.8719C148.335 31.346 149.313 31.5831 150.663 31.5831C151.321 31.5831 151.932 31.5423 152.498 31.4646C153.061 31.3868 153.502 31.2979 153.815 31.2052V20.9776V18.7995V15.5804C153.815 15.2545 153.785 14.9285 153.726 14.6025C154.12 14.3062 154.565 14.0395 155.061 13.8061C155.705 13.506 156.385 13.3579 157.106 13.3579C158.077 13.3579 158.86 13.6098 159.456 14.1172C160.052 14.621 160.35 15.4138 160.35 16.4843V18.8032V20.9813V28.3196C160.35 29.5494 160.655 30.4014 161.266 30.8756C161.876 31.3497 162.854 31.5868 164.204 31.5868C164.862 31.5868 165.473 31.546 166.039 31.4683C166.602 31.3905 167.025 31.3016 167.308 31.209V20.9776V18.7995V16.288C167.308 14.2358 166.885 12.5948 166.039 11.3649C165.182 10.1351 164.053 9.23496 162.645 8.66449Z" fill="#1F1E28"/>
<path d="M193.202 20.0293C193.735 19.5255 194 18.781 194 17.803C194 15.8472 193.544 14.1247 192.635 12.6429C191.727 11.1612 190.465 9.98323 188.851 9.11642C187.237 8.24961 185.35 7.8125 183.187 7.8125C181.713 7.8125 180.297 8.04958 178.932 8.52373C177.568 8.99788 176.347 9.71652 175.266 10.6796C174.185 11.6428 173.32 12.8652 172.68 14.3506C172.037 15.836 171.717 17.5882 171.717 19.607C171.717 22.3519 172.265 24.6412 173.361 26.4748C174.457 28.3048 175.968 29.6791 177.899 30.594C179.83 31.509 181.996 31.9683 184.412 31.9683C186.074 31.9683 187.553 31.809 188.855 31.4942C190.157 31.1793 191.175 30.7052 191.911 30.0754C192.646 29.4457 193.014 28.6567 193.014 27.7084C193.014 27.1416 192.863 26.6045 192.569 26.097C192.271 25.5932 191.889 25.1968 191.418 24.9116C190.697 25.3228 189.756 25.7155 188.597 26.097C187.439 26.4748 186.199 26.6638 184.883 26.6638C183.254 26.6638 181.841 26.2933 180.653 25.5525C179.701 24.9598 179.046 24.0448 178.675 22.8187L190.995 20.985C191.933 20.8517 192.668 20.5368 193.202 20.0293ZM178.237 18.0772C178.37 16.5473 178.859 15.3397 179.708 14.4692C180.65 13.506 181.823 13.0245 183.235 13.0245C184.581 13.0245 185.6 13.4023 186.291 14.1617C186.979 14.9174 187.358 15.7397 187.42 16.6251L178.237 18.0772Z" fill="#1F1E28"/>
<path d="M8.61675 45.0002L0 30.9831L17.1305 30.9275L8.61675 45.0002Z" fill="#B4163C"/>
<path d="M59.6038 16.914L51.09 2.84131H0L8.51377 16.914L0 30.9867H51.2334L59.6038 16.914Z" fill="#FB1F43"/>
<path d="M29.1712 11.9021C27.7259 10.4464 25.3795 10.4464 23.9305 11.9021L23.4598 12.3763L22.9891 11.9021C21.5437 10.4464 19.1974 10.4464 17.7484 11.9021C16.3031 13.3579 16.2994 15.7139 17.741 17.1734L23.4635 22.9669L29.1786 17.1771C30.6202 15.7139 30.6165 13.3579 29.1712 11.9021Z" fill="white"/>
<path d="M45.8343 11.9021C44.389 10.4464 42.0426 10.4464 40.5936 11.9021L40.1229 12.3763L39.6521 11.9021C38.2068 10.4464 35.8605 10.4464 34.4115 11.9021C32.9662 13.3579 32.9625 15.7139 34.4041 17.1734L40.1266 22.9669L45.8416 17.1771C47.2833 15.7139 47.2796 13.3579 45.8343 11.9021Z" fill="white"/>
</svg>
