<svg width="107" height="106" viewBox="0 0 107 106" fill="none" xmlns="http://www.w3.org/2000/svg">
<rect x="0.629883" width="105.63" height="105.63" fill="#D9D9D9"/>
<path d="M28.0938 39.0645C28.0938 36.3146 30.3437 34.0647 33.0936 34.0647H73.0922C74.4183 34.0647 75.69 34.5915 76.6276 35.5291C77.5653 36.4668 78.0921 37.7385 78.0921 39.0645V69.0635C78.0921 70.3896 77.5653 71.6613 76.6276 72.5989C75.69 73.5366 74.4183 74.0634 73.0922 74.0634H33.0936C31.7675 74.0634 30.4958 73.5366 29.5582 72.5989C28.6205 71.6613 28.0938 70.3896 28.0938 69.0635V39.0645ZM55.5928 61.5638L48.0931 54.064L33.0936 69.0635H73.0922L60.5927 56.5639L55.5928 61.5638ZM65.5925 51.5641C66.9185 51.5641 68.1903 51.0373 69.1279 50.0997C70.0656 49.162 70.5923 47.8903 70.5923 46.5643C70.5923 45.2382 70.0656 43.9665 69.1279 43.0289C68.1903 42.0912 66.9185 41.5644 65.5925 41.5644C64.2664 41.5644 62.9947 42.0912 62.0571 43.0289C61.1194 43.9665 60.5927 45.2382 60.5927 46.5643C60.5927 47.8903 61.1194 49.162 62.0571 50.0997C62.9947 51.0373 64.2664 51.5641 65.5925 51.5641Z" fill="#AAAAAA"/>
</svg>
