<svg width="18" height="20" viewBox="0 0 18 20" fill="none" xmlns="http://www.w3.org/2000/svg">
<path d="M0.407569 9.99155C0.407569 7.70041 0.403757 5.40927 0.409093 3.11813C0.412143 1.68705 1.35053 0.454385 2.70208 0.102863C2.94602 0.0395895 3.20368 0.00521852 3.45447 0.00521852C6.31309 -0.00181191 9.17171 -0.000249589 12.0303 0.00053157C12.5898 0.00053157 12.9916 0.394235 12.9931 0.934797C12.9946 1.48317 12.5906 1.87453 12.0174 1.87531C9.20982 1.87609 6.40228 1.87531 3.59474 1.87609C2.72953 1.87609 2.23861 2.37994 2.23861 3.26968C2.23861 7.75431 2.23861 12.2397 2.23861 16.7244C2.23861 17.6235 2.72877 18.1234 3.60922 18.1234C6.41676 18.1234 9.2243 18.1226 12.0318 18.1242C12.6066 18.1242 13.0091 18.5359 12.9931 19.0983C12.9794 19.5732 12.6142 19.963 12.15 19.9966C12.1058 19.9998 12.0608 19.999 12.0166 19.999C9.17094 19.999 6.32529 20.0021 3.47963 19.9982C1.98934 19.9958 0.766611 18.9663 0.470077 17.4665C0.426626 17.2454 0.41138 17.0142 0.41138 16.7876C0.406044 14.5223 0.407569 12.2569 0.407569 9.99155Z" fill="#3A4159"/>
<path d="M14.2643 10.9375C14.1568 10.9375 14.0897 10.9375 14.0226 10.9375C11.7235 10.9375 9.42445 10.9383 7.12613 10.9367C6.62453 10.9367 6.24643 10.6157 6.17097 10.136C6.08407 9.58609 6.50943 9.07052 7.06895 9.06427C7.69099 9.05646 8.31379 9.06193 8.93582 9.06193C10.6312 9.06193 12.3273 9.06193 14.0226 9.06193C14.0905 9.06193 14.1576 9.06193 14.2643 9.06193C14.1919 8.98069 14.1484 8.92913 14.1012 8.88148C13.2436 8.0019 12.3852 7.12388 11.5284 6.24429C11.2143 5.92167 11.135 5.53344 11.2982 5.15692C11.5459 4.58745 12.2594 4.42029 12.7222 4.82414C12.7801 4.87492 12.8327 4.93116 12.8868 4.98663C14.2704 6.40365 15.6532 7.82145 17.036 9.23847C17.5284 9.7431 17.5277 10.2587 17.0337 10.7649C15.6372 12.1959 14.2391 13.6262 12.8449 15.0597C12.5933 15.3182 12.3044 15.4502 11.9515 15.3729C11.254 15.2198 10.9887 14.3754 11.4613 13.827C11.5032 13.7786 11.5497 13.7333 11.594 13.6872C12.4294 12.831 13.2641 11.9757 14.0996 11.1187C14.1477 11.0703 14.1911 11.0187 14.2643 10.9375Z" fill="#3A4159"/>
</svg>
