<svg width="105" height="106" viewBox="0 0 105 106" fill="none" xmlns="http://www.w3.org/2000/svg">
<path d="M99.446 0.498535H76.725C75.252 0.498535 73.8393 1.08379 72.7977 2.12556C71.7561 3.16733 71.171 4.58027 71.171 6.05355C71.171 7.52684 71.7561 8.93978 72.7977 9.98155C73.8393 11.0233 75.252 11.6086 76.725 11.6086H86.0381L70.7923 26.8571C53.5774 13.5099 28.6322 14.7371 12.8437 30.536C-4.28291 47.6682 -4.28291 75.5393 12.8538 92.6614C21.0978 100.882 32.2644 105.499 43.9058 105.499C55.5472 105.499 66.7137 100.882 74.9578 92.6614C90.7539 76.8599 91.9809 51.9203 78.6361 34.7023L93.892 19.4639V28.7786C93.892 30.2519 94.4771 31.6649 95.5187 32.7066C96.5603 33.7484 97.973 34.3337 99.446 34.3337C100.919 34.3337 102.332 33.7484 103.373 32.7066C104.415 31.6649 105 30.2519 105 28.7786V6.05355C105 5.32406 104.856 4.60171 104.577 3.92774C104.298 3.25377 103.889 2.64139 103.373 2.12556C102.858 1.60973 102.245 1.20055 101.571 0.921386C100.898 0.64222 100.175 0.498535 99.446 0.498535ZM67.1115 84.8136C60.9525 90.9609 52.6068 94.4133 43.9058 94.4133C35.2047 94.4133 26.8591 90.9609 20.7001 84.8136C7.90312 72.0169 7.90312 51.1906 20.7001 38.3939C33.497 25.5971 54.3171 25.5946 67.1115 38.3939C79.9059 51.1931 79.9085 72.0169 67.1115 84.8136Z" fill="#FB1F43"/>
</svg>
