<svg width="16" height="17" viewBox="0 0 16 17" fill="none" xmlns="http://www.w3.org/2000/svg">
<path d="M6.04033 1.49319C4.78033 1.48652 3.55366 2.69986 4.11366 4.20652H2.00033C1.6467 4.20652 1.30757 4.347 1.05752 4.59705C0.807468 4.8471 0.666992 5.18624 0.666992 5.53986V6.87319C0.666992 7.05 0.73723 7.21957 0.862254 7.3446C0.987279 7.46962 1.15685 7.53986 1.33366 7.53986H7.33366V5.53986H8.66699V7.53986H14.667C14.8438 7.53986 15.0134 7.46962 15.1384 7.3446C15.2634 7.21957 15.3337 7.05 15.3337 6.87319V5.53986C15.3337 5.18624 15.1932 4.8471 14.9431 4.59705C14.6931 4.347 14.3539 4.20652 14.0003 4.20652H11.887C12.667 2.02652 9.73366 0.486525 8.38033 2.36652L8.00033 2.87319L7.62033 2.35319C7.20033 1.75986 6.62033 1.49986 6.04033 1.49319ZM6.00033 2.87319C6.59366 2.87319 6.89366 3.59319 6.47366 4.01319C6.05366 4.43319 5.33366 4.13319 5.33366 3.53986C5.33366 3.36305 5.4039 3.19348 5.52892 3.06845C5.65395 2.94343 5.82351 2.87319 6.00033 2.87319ZM10.0003 2.87319C10.5937 2.87319 10.8937 3.59319 10.4737 4.01319C10.0537 4.43319 9.33366 4.13319 9.33366 3.53986C9.33366 3.36305 9.4039 3.19348 9.52892 3.06845C9.65395 2.94343 9.82351 2.87319 10.0003 2.87319ZM1.33366 8.20652V13.5399C1.33366 13.8935 1.47413 14.2326 1.72418 14.4827C1.97423 14.7327 2.31337 14.8732 2.66699 14.8732H13.3337C13.6873 14.8732 14.0264 14.7327 14.2765 14.4827C14.5265 14.2326 14.667 13.8935 14.667 13.5399V8.20652H8.66699V13.5399H7.33366V8.20652H1.33366Z" fill="#FB1F43"/>
</svg>
