<svg width="28" height="28" viewBox="0 0 28 28" fill="none" xmlns="http://www.w3.org/2000/svg">
<path d="M19.7546 1.51943L6.87769 5.79888C-1.77824 8.69465 -1.77824 13.4163 6.87769 16.2978L10.6994 17.5674L11.9686 21.3904C14.8491 30.0491 19.5835 30.0491 22.4641 21.3904L26.7564 8.52347C28.6672 2.74621 25.53 -0.406323 19.7546 1.51943ZM20.211 9.19392L14.7921 14.6431C14.5782 14.8571 14.3072 14.9569 14.0363 14.9569C13.7654 14.9569 13.4944 14.8571 13.2805 14.6431C13.0816 14.4418 12.9701 14.1701 12.9701 13.8871C12.9701 13.604 13.0816 13.3323 13.2805 13.131L18.6994 7.68184C19.1129 7.26816 19.7974 7.26816 20.211 7.68184C20.6245 8.09552 20.6245 8.78024 20.211 9.19392Z" fill="#1F91FB"/>
</svg>
