<svg width="11" height="10" viewBox="0 0 11 10" fill="none" xmlns="http://www.w3.org/2000/svg">
<path d="M7.62943 0.707901L3.21098 2.17631C0.240873 3.16993 0.240873 4.79007 3.21098 5.77879L4.52232 6.21442L4.95781 7.5262C5.94621 10.4973 7.57072 10.4973 8.55912 7.5262L10.0319 3.11119C10.6876 1.12884 9.61113 0.0471182 7.62943 0.707901ZM7.78601 3.34124L5.92664 5.21101C5.85324 5.28443 5.76027 5.31869 5.6673 5.31869C5.57434 5.31869 5.48137 5.28443 5.40797 5.21101C5.33972 5.14193 5.30145 5.04872 5.30145 4.95159C5.30145 4.85447 5.33972 4.76126 5.40797 4.69217L7.26734 2.8224C7.40924 2.68046 7.64411 2.68046 7.78601 2.8224C7.92791 2.96435 7.92791 3.1993 7.78601 3.34124Z" fill="#479DEF"/>
</svg>
