<svg width="12" height="12" viewBox="0 0 12 12" fill="none" xmlns="http://www.w3.org/2000/svg">
<path d="M3.43467 6.34229C3.40309 6.22183 3.37193 6.10094 3.3395 5.98089C3.09065 5.0538 2.84095 4.12713 2.59335 3.19962C2.53187 2.96964 2.46955 2.73923 2.42113 2.5063C2.3407 2.11837 2.59672 1.72579 2.98748 1.62133C3.37782 1.51729 3.81406 1.73422 3.92691 2.11205C4.07134 2.59518 4.19514 3.08463 4.32609 3.57155C4.52232 4.30236 4.71643 5.03358 4.91181 5.76481C4.91602 5.78124 4.92318 5.79682 4.94971 5.81283C4.94971 5.77408 4.94971 5.73533 4.94971 5.69657C4.94971 4.32974 4.94761 2.96332 4.9514 1.59648C4.95224 1.24182 5.10214 0.963819 5.43311 0.810918C5.92746 0.5822 6.52623 0.966767 6.52707 1.5114C6.52834 2.97259 6.52749 4.4342 6.52749 5.89539C6.52749 5.93709 6.52749 5.97879 6.52749 6.02049C6.53381 6.02175 6.54013 6.02302 6.54644 6.02428C6.61634 5.78082 6.68624 5.53736 6.75614 5.29432C7.07827 4.17684 7.39281 3.05683 7.72546 1.94272C7.89347 1.37998 8.61352 1.20728 9.02618 1.62386C9.20808 1.80751 9.30367 2.04592 9.24093 2.30791C9.12682 2.78473 8.9967 3.25775 8.87038 3.73161C8.67542 4.46284 8.47793 5.19322 8.28129 5.92403C8.24044 6.07609 8.1916 6.22688 8.1596 6.38105C8.13138 6.5171 8.11033 6.65652 8.1057 6.7951C8.09728 7.04699 8.10486 7.29971 8.10317 7.55202C8.10233 7.69397 8.16381 7.80011 8.29308 7.85066C8.42403 7.90163 8.56046 7.89699 8.66279 7.78579C8.83796 7.59541 9.00218 7.39491 9.17608 7.20326C9.40978 6.94463 9.60348 6.64725 9.90202 6.45097C10.23 6.23531 10.5846 6.11442 10.9808 6.13C11.2263 6.13969 11.4162 6.24963 11.5169 6.47245C11.6242 6.71086 11.6049 6.95053 11.423 7.14976C11.1518 7.44714 10.8705 7.73525 10.5922 8.02589C10.0936 8.54693 9.59421 9.06713 9.09523 9.58775C8.78027 9.91629 8.46783 10.2474 8.15075 10.5734C7.61598 11.1231 6.96289 11.4318 6.19989 11.4937C5.71481 11.5333 5.2272 11.5485 4.74549 11.4529C4.22882 11.3505 3.77448 11.1205 3.38666 10.7617C2.76136 10.1829 2.4544 9.46644 2.44597 8.61558C2.43797 7.82075 2.22575 7.08195 1.82067 6.39705C1.51749 5.88486 1.22358 5.36719 0.925878 4.8512C0.759552 4.56267 0.751973 4.2813 0.954512 4.00456C1.19958 3.67012 1.79204 3.652 2.027 3.99108C2.21606 4.26361 2.37397 4.55803 2.54156 4.8453C2.8241 5.32928 3.1037 5.81494 3.38456 6.29975C3.39424 6.3166 3.40561 6.33303 3.41614 6.34946C3.42246 6.34735 3.42835 6.34482 3.43467 6.34229Z" fill="#F8C242"/>
</svg>
