<svg width="25" height="24" viewBox="0 0 25 24" fill="none" xmlns="http://www.w3.org/2000/svg">
<mask id="mask0_180_1643" style="mask-type:luminance" maskUnits="userSpaceOnUse" x="2" y="2" width="21" height="20">
<path fill-rule="evenodd" clip-rule="evenodd" d="M2.5 12C2.5 6.48 6.98 2 12.5 2C18.02 2 22.5 6.48 22.5 12C22.5 17.52 18.02 22 12.5 22C6.98 22 2.5 17.52 2.5 12ZM4.5 12C4.5 16.42 8.08 20 12.5 20C16.92 20 20.5 16.42 20.5 12C20.5 7.58 16.92 4 12.5 4C8.08 4 4.5 7.58 4.5 12Z" fill="white"/>
</mask>
<g mask="url(#mask0_180_1643)">
<rect x="0.5" width="24" height="24" fill="black" fill-opacity="0.6"/>
</g>
</svg>
