<svg width="16" height="16" viewBox="0 0 16 16" fill="none" xmlns="http://www.w3.org/2000/svg">
<path d="M9.99967 15.1666H5.99967C2.37967 15.1666 0.833008 13.6199 0.833008 9.99992V5.99992C0.833008 2.37992 2.37967 0.833252 5.99967 0.833252H9.99967C13.6197 0.833252 15.1663 2.37992 15.1663 5.99992V9.99992C15.1663 13.6199 13.6197 15.1666 9.99967 15.1666ZM5.99967 1.83325C2.92634 1.83325 1.83301 2.92659 1.83301 5.99992V9.99992C1.83301 13.0733 2.92634 14.1666 5.99967 14.1666H9.99967C13.073 14.1666 14.1663 13.0733 14.1663 9.99992V5.99992C14.1663 2.92659 13.073 1.83325 9.99967 1.83325H5.99967Z" fill="#0A0E1A"/>
</svg>
