<svg width="11" height="8" viewBox="0 0 11 8" fill="none" xmlns="http://www.w3.org/2000/svg">
<path fill-rule="evenodd" clip-rule="evenodd" d="M2.27701 0.315552C1.87875 0.315552 1.49681 0.472019 1.2152 0.750532C0.933596 1.02904 0.775391 1.40679 0.775391 1.80067V5.76097C0.775391 6.15485 0.933596 6.53259 1.2152 6.8111C1.49681 7.08962 1.87875 7.24608 2.27701 7.24608H7.28239C7.68064 7.24608 8.06258 7.08962 8.34419 6.8111C8.6258 6.53259 8.78401 6.15485 8.78401 5.76097V4.97584L9.93174 6.11096C10.0017 6.18017 10.0909 6.2273 10.188 6.2464C10.2851 6.26549 10.3857 6.25568 10.4772 6.21822C10.5686 6.18077 10.6468 6.11733 10.7018 6.03594C10.7568 5.95455 10.7861 5.85886 10.7862 5.76097V1.80067C10.7861 1.70277 10.7568 1.60708 10.7018 1.52569C10.6468 1.4443 10.5686 1.38087 10.4772 1.34341C10.3857 1.30595 10.2851 1.29615 10.188 1.31524C10.0909 1.33433 10.0017 1.38146 9.93174 1.45067L8.78401 2.5858V1.80067C8.78401 1.40679 8.6258 1.02904 8.34419 0.750532C8.06258 0.472019 7.68064 0.315552 7.28239 0.315552H2.27701Z" fill="#FB1F43"/>
</svg>
