<svg width="220" height="141" viewBox="0 0 220 141" fill="none" xmlns="http://www.w3.org/2000/svg">
<rect width="220" height="141" fill="#D9D9D9"/>
<path d="M146.305 52.5078V88.4922C146.305 89.8556 145.717 91.1631 144.669 92.1272C143.622 93.0912 142.201 93.6328 140.72 93.6328H79.2798C77.7984 93.6328 76.3778 93.0912 75.3303 92.1272C74.2828 91.1631 73.6943 89.8556 73.6943 88.4922V52.5078C73.6943 51.1444 74.2828 49.8369 75.3303 48.8728C76.3778 47.9088 77.7984 47.3672 79.2798 47.3672H140.72C142.201 47.3672 143.622 47.9088 144.669 48.8728C145.717 49.8369 146.305 51.1444 146.305 52.5078ZM122.567 70.5C122.567 70.0674 122.448 69.6419 122.222 69.2628C121.995 68.8837 121.669 68.5633 121.272 68.3313L105.912 59.3352C105.49 59.0883 105.003 58.9504 104.503 58.9357C104.003 58.921 103.508 59.0302 103.07 59.2518C102.631 59.4734 102.266 59.7993 102.011 60.1955C101.756 60.5917 101.622 61.0435 101.622 61.5039V79.4961C101.622 79.9564 101.756 80.4083 102.011 80.8045C102.266 81.2006 102.631 81.5266 103.07 81.7482C103.508 81.9698 104.003 82.079 104.503 82.0643C105.003 82.0496 105.49 81.9117 105.912 81.6648L121.272 72.6687C121.669 72.4367 121.995 72.1163 122.222 71.7372C122.448 71.3581 122.567 70.9326 122.567 70.5Z" fill="#AAAAAA"/>
</svg>
