<svg width="42" height="42" viewBox="0 0 42 42" fill="none" xmlns="http://www.w3.org/2000/svg">
<path d="M23.0688 6.43185C23.3362 6.24059 23.6491 6.12281 23.9762 6.09028C24.3033 6.05775 24.6333 6.1116 24.9331 6.24646C25.2329 6.38132 25.492 6.59246 25.6847 6.85882C25.8774 7.12517 25.9968 7.4374 26.0311 7.76435L26.0413 7.9591V34.6296C26.0414 34.9583 25.9553 35.2814 25.7915 35.5664C25.6278 35.8515 25.3921 36.0886 25.108 36.254C24.8239 36.4195 24.5014 36.5075 24.1727 36.5094C23.8439 36.5112 23.5205 36.4268 23.2345 36.2645L23.0705 36.1586L11.828 28.1277H7.24967C6.38769 28.128 5.55746 27.8024 4.92541 27.2163C4.29335 26.6302 3.9062 25.8268 3.84155 24.9673L3.83301 24.711V17.8777C3.83274 17.0157 4.15829 16.1855 4.7444 15.5534C5.33051 14.9214 6.13387 14.5342 6.99342 14.4696L7.24967 14.461H11.828L23.0688 6.43185ZM34.0141 12.382C35.2693 13.5026 36.2732 14.8759 36.9601 16.4119C37.647 17.9479 38.0012 19.6118 37.9997 21.2944C38.0012 22.9769 37.647 24.6408 36.9601 26.1768C36.2732 27.7128 35.2693 29.0861 34.0141 30.2067C33.8474 30.3588 33.6522 30.4764 33.4398 30.5526C33.2274 30.6288 33.0019 30.6621 32.7766 30.6507C32.5512 30.6393 32.3303 30.5834 32.1266 30.4861C31.923 30.3889 31.7406 30.2522 31.5901 30.0841C31.4396 29.916 31.3238 29.7197 31.2496 29.5065C31.1754 29.2934 31.1441 29.0677 31.1576 28.8425C31.1711 28.6172 31.2291 28.3968 31.3282 28.1941C31.4274 27.9914 31.5657 27.8103 31.7352 27.6613C32.6324 26.8612 33.35 25.8801 33.8408 24.7828C34.3317 23.6854 34.5846 22.4965 34.583 21.2944C34.583 18.766 33.4863 16.4939 31.7352 14.9274C31.5657 14.7784 31.4274 14.5973 31.3282 14.3946C31.2291 14.1919 31.1711 13.9715 31.1576 13.7463C31.1441 13.521 31.1754 13.2953 31.2496 13.0822C31.3238 12.869 31.4396 12.6727 31.5901 12.5046C31.7406 12.3365 31.923 12.1998 32.1266 12.1026C32.3303 12.0053 32.5512 11.9494 32.7766 11.938C33.0019 11.9266 33.2274 11.9599 33.4398 12.0361C33.6522 12.1123 33.8474 12.2299 34.0141 12.382ZM30.5975 16.2018C31.3143 16.842 31.8878 17.6265 32.2802 18.5038C32.6727 19.3811 32.8753 20.3315 32.8747 21.2926C32.8759 22.2543 32.6736 23.2054 32.2811 24.0834C31.8886 24.9614 31.3149 25.7464 30.5975 26.3869C30.2735 26.6746 29.8523 26.8285 29.4192 26.8174C28.986 26.8062 28.5733 26.6309 28.2645 26.3269C27.9558 26.023 27.7741 25.613 27.7562 25.1801C27.7383 24.7472 27.8856 24.3236 28.1682 23.9952L28.3185 23.8415C29.019 23.2128 29.458 22.3057 29.458 21.2944C29.46 20.4195 29.1247 19.5776 28.5218 18.9437L28.3185 18.7472C28.149 18.5983 28.0107 18.4172 27.9116 18.2145C27.8124 18.0117 27.7544 17.7914 27.7409 17.5661C27.7274 17.3408 27.7587 17.1151 27.8329 16.902C27.9072 16.6889 28.0229 16.4926 28.1734 16.3244C28.324 16.1563 28.5063 16.0197 28.71 15.9224C28.9136 15.8251 29.1345 15.7692 29.3599 15.7578C29.5853 15.7464 29.8107 15.7798 30.0231 15.856C30.2355 15.9322 30.4307 16.0497 30.5975 16.2018Z" fill="#C4C4C4"/>
</svg>
